<?xml version="1.0" encoding="utf-8"?>
<!-- Generator: Adobe Illustrator 27.2.0, SVG Export Plug-In . SVG Version: 6.00 Build 0)  -->
<svg version="1.1" id="Layer_1" xmlns="http://www.w3.org/2000/svg" xmlns:xlink="http://www.w3.org/1999/xlink" x="0px" y="0px"
	 viewBox="0 0 800 800" style="enable-background:new 0 0 800 800;" xml:space="preserve">
<style type="text/css">
	.st0{fill:#FAA61A;enable-background:new    ;}
	.st1{fill:#FFFFFF;}
</style>
<path class="st0" d="M400,733.3c-157.1,0-235.7,0-284.5-48.8C66.7,635.7,66.7,557.1,66.7,400c0-157.1,0-235.7,48.8-284.5
	C164.3,66.7,242.9,66.7,400,66.7c157.1,0,235.7,0,284.5,48.8c48.8,48.8,48.8,127.4,48.8,284.5c0,157.1,0,235.7-48.8,284.5
	C635.7,733.3,557.1,733.3,400,733.3z"/>
<path class="st1" d="M299,299c9.8-9.8,25.6-9.8,35.4,0l65.7,65.7l65.7-65.7c9.8-9.8,25.6-9.8,35.4,0s9.8,25.6,0,35.4L435.4,400
	l65.7,65.7c9.8,9.8,9.8,25.6,0,35.4s-25.6,9.8-35.4,0L400,435.4L334.3,501c-9.8,9.8-25.6,9.8-35.4,0s-9.8-25.6,0-35.4l65.7-65.7
	L299,334.3C289.2,324.6,289.2,308.8,299,299z"/>
</svg>
