<?xml version="1.0" encoding="utf-8"?>
<!-- Generator: Adobe Illustrator 27.2.0, SVG Export Plug-In . SVG Version: 6.00 Build 0)  -->
<svg version="1.1" id="Layer_1" xmlns="http://www.w3.org/2000/svg" xmlns:xlink="http://www.w3.org/1999/xlink" x="0px" y="0px"
	 viewBox="0 0 48 48" style="enable-background:new 0 0 48 48;" xml:space="preserve">
<style type="text/css">
	.st0{fill:#77787B;}
	.st1{fill:#FAA61A;}
</style>
<g>
	<g>
		<path class="st0" d="M24,0C10.7,0,0,10.7,0,24c0,6.9,2.9,13.1,7.5,17.5L24.1,9.4v0l2.5-4.7l2.3,4.5l14.8,28.6
			C46.4,33.8,48,29.1,48,24C48,10.7,37.3,0,24,0z"/>
		<path class="st0" d="M26.6,14L11,44.2c3.7,2.4,8.2,3.8,13,3.8c4.7,0,9.1-1.4,12.8-3.7h-0.4H25.2h-1.7l6.5-12.5v0l0.9-1.7l0.8,1.6
			l6.2,12c1-0.7,2-1.6,2.9-2.4L26.6,14z"/>
		<path class="st1" d="M30.8,30.1l-0.9,1.7v0l-6.5,12.5h1.7h11.2h0.4c0.3-0.2,0.6-0.4,1-0.6l-6.2-12L30.8,30.1z"/>
	</g>
</g>
</svg>
